<svg width="29" height="29" viewBox="0 0 29 29" fill="none" xmlns="http://www.w3.org/2000/svg">
<path d="M17.818 14.4022L28.0189 4.20129C28.4563 3.72982 28.6994 3.11021 28.6994 2.46716C28.6994 1.82389 28.4562 1.20453 28.0189 0.73287C27.5473 0.295556 26.9279 0.0526686 26.2847 0.0526686C25.6416 0.0526686 25.0222 0.295576 24.5505 0.73287L14.3496 10.9338L4.14862 0.73287C3.69008 0.281406 3.07777 0.0201277 2.43451 0.00108954C1.79125 -0.0177045 1.16459 0.207219 0.680408 0.631005C0.242892 1.10247 0 1.72187 0 2.36514C0 3.0084 0.242908 3.62776 0.680408 4.09927L10.8814 14.3002L0.680408 24.5012C0.242892 24.9728 0 25.5922 0 26.2353C0 26.8786 0.242908 27.4979 0.680408 27.9696C1.15188 28.4069 1.77128 28.65 2.41454 28.65C3.0578 28.65 3.67717 28.4069 4.14867 27.9696L14.3496 17.7686L24.5506 27.9696C25.2011 28.3313 25.9771 28.3909 26.6753 28.1327C27.3733 27.8744 27.9238 27.3239 28.1821 26.6259C28.4403 25.9277 28.3807 25.1517 28.019 24.5012L17.818 14.4022Z" fill="#1B43AE"/>
</svg>
